<?xml version="1.0" encoding="UTF-8" standalone="no"?><!DOCTYPE svg PUBLIC "-//W3C//DTD SVG 1.1//EN" "http://www.w3.org/Graphics/SVG/1.1/DTD/svg11.dtd"><svg width="100%" height="100%" viewBox="0 0 1084 1084" version="1.1" xmlns="http://www.w3.org/2000/svg" xmlns:xlink="http://www.w3.org/1999/xlink" xml:space="preserve" xmlns:serif="http://www.serif.com/" style="fill-rule:evenodd;clip-rule:evenodd;stroke-linejoin:round;stroke-miterlimit:2;"><rect id="Icon_Cutout" x="0" y="0" width="1083.33" height="1083.33" style="fill:none;"/><g><path d="M1029.17,297.917l-0,487.5c-0,134.529 -109.221,243.75 -243.75,243.75l-487.5,-0c-134.53,-0 -243.75,-109.221 -243.75,-243.75l-0,-487.5c-0,-134.53 109.22,-243.75 243.75,-243.75l487.5,-0c134.529,-0 243.75,109.22 243.75,243.75Zm-778.778,77.992l329.124,0c55.784,0 83.676,20.72 83.676,62.956l-0,9.563c-0,41.44 -27.892,62.159 -83.676,62.159l-329.124,0l0,105.044l166.555,1.742l157.788,0c57.377,0 75.706,21.517 75.706,70.128l0,137.866l163.367,-0l-0,-137.069c-0,-53.393 12.363,-112.296 -53.781,-125.843c75.707,-19.923 72.907,-58.243 72.907,-131.559l-0,-8.766c-0,-104.395 -82.879,-164.163 -219.151,-164.163l-363.391,-0l0,117.942Zm0,340.097l0,109.361l304.055,-0l-0,-85.747c-0,-12.1 -9.773,-21.928 -21.872,-21.997l-282.183,-1.617Z" style="fill:#5949ee;"/></g></svg>