<?xml version="1.0" encoding="UTF-8" standalone="no"?><!DOCTYPE svg PUBLIC "-//W3C//DTD SVG 1.1//EN" "http://www.w3.org/Graphics/SVG/1.1/DTD/svg11.dtd"><svg width="100%" height="100%" viewBox="0 0 4084 1084" version="1.1" xmlns="http://www.w3.org/2000/svg" xmlns:xlink="http://www.w3.org/1999/xlink" xml:space="preserve" xmlns:serif="http://www.serif.com/" style="fill-rule:evenodd;clip-rule:evenodd;stroke-linejoin:round;stroke-miterlimit:2;"><rect id="Full" x="0" y="0" width="4083.33" height="1083.33" style="fill:none;"/><g><path d="M195.699,310.278l-0,-117.943l363.391,0c136.271,0 219.15,59.769 219.15,164.164l-0,8.766c-0,73.316 2.8,111.636 -72.906,131.558c66.143,13.548 53.78,72.451 53.78,125.844l-0,137.068l-163.367,0l0,-137.865c0,-48.612 -18.329,-70.128 -75.706,-70.128l-157.788,-0l-166.554,-1.742l-0,-105.044l329.123,-0c55.784,-0 83.676,-20.72 83.676,-62.159l-0,-9.563c-0,-42.236 -27.892,-62.956 -83.676,-62.956l-329.123,0Zm-0,340.097l282.182,1.616c12.1,0.07 21.872,9.898 21.872,21.998l-0,85.746l-304.054,0l-0,-109.36Z" style="fill:#5949ee;"/><g><path d="M960.513,762.002c-20.387,0 -39.205,-5.227 -56.456,-15.682c-17.25,-10.455 -31.103,-24.308 -41.558,-41.558c-10.454,-17.251 -15.682,-36.069 -15.682,-56.456l0,-227.393c0,-20.386 5.228,-39.205 15.682,-56.456c10.455,-17.25 24.308,-31.103 41.558,-41.558c17.251,-10.454 36.069,-15.682 56.456,-15.682l233.666,0c20.909,0 39.989,5.228 57.24,15.682c17.25,10.455 30.972,24.308 41.166,41.558c10.193,17.251 15.29,36.07 15.29,56.456l-0,174.073l-341.089,0l0,47.047l341.089,-0l-0,119.969l-347.362,0Zm6.273,-272.087l221.12,0l-0,-62.729l-221.12,0l0,62.729Z" style="fill-rule:nonzero;"/><path d="M1391.78,762.002l-0,-454.785l547.31,0c20.91,0 39.99,5.228 57.24,15.682c17.251,10.455 30.973,24.308 41.166,41.558c10.194,17.251 15.29,36.07 15.29,56.456l0,341.089l-119.185,0l0,-334.816l-150.549,0l-0,334.816l-120.753,0l-0,-334.816l-150.55,0l0,334.816l-119.969,0Z" style="fill-rule:nonzero;"/><path d="M2221.37,925.097l0,-120.753l269.735,0l-0,-42.342l-227.393,0c-20.909,0 -39.989,-5.227 -57.24,-15.682c-17.25,-10.455 -31.103,-24.308 -41.558,-41.558c-10.455,-17.251 -15.682,-36.069 -15.682,-56.456l0,-339.521l119.969,0l0,333.248l221.904,-0l-0,-333.248l119.969,0l-0,502.616c-0,20.91 -5.097,39.99 -15.29,57.24c-10.194,17.251 -23.916,30.973 -41.166,41.166c-17.251,10.194 -36.331,15.29 -57.24,15.29l-276.008,0Z" style="fill-rule:nonzero;"/><path d="M2689.48,762.002l0,-39.205l156.823,-192.108l-156.823,-184.266l0,-39.206l123.106,0l111.344,131.731l110.559,-131.731l123.89,0l0,39.206l-156.822,184.266l156.822,192.108l0,39.205l-123.105,0l-111.344,-136.435l-111.344,136.435l-123.106,0Z" style="fill-rule:nonzero;"/></g><g><path d="M3054.12,925.097l-0,-120.753l192.107,0l0,-497.127l119.969,0l0,504.184c0,20.91 -5.227,39.99 -15.682,57.24c-10.455,17.251 -24.307,30.973 -41.558,41.166c-17.25,10.194 -36.33,15.29 -57.24,15.29l-197.596,0Zm192.107,-646.108l0,-120.753l119.969,-0l0,120.753l-119.969,0Z" style="fill:#8e83f3;fill-rule:nonzero;"/><path d="M3539.49,762.002c-20.387,0 -39.206,-5.227 -56.456,-15.682c-17.251,-10.455 -31.103,-24.308 -41.558,-41.558c-10.455,-17.251 -15.682,-36.069 -15.682,-56.456l-0,-22.739l119.969,-0l-0,16.466l221.119,-0l0,-47.047l-227.392,0c-20.387,0 -39.206,-5.227 -56.456,-15.682c-17.251,-10.455 -31.103,-24.307 -41.558,-41.558c-10.455,-17.25 -15.682,-36.069 -15.682,-56.456l-0,-60.377c-0,-20.386 5.227,-39.205 15.682,-56.456c10.455,-17.25 24.307,-31.103 41.558,-41.558c17.25,-10.454 36.069,-15.682 56.456,-15.682l233.665,0c20.91,0 39.99,5.228 57.24,15.682c17.251,10.455 31.104,24.308 41.558,41.558c10.455,17.251 15.683,36.07 15.683,56.456l-0,22.74l-120.754,-0l0,-16.467l-221.119,0l-0,47.047l227.392,0c20.91,0 39.99,5.227 57.24,15.682c17.251,10.455 31.104,24.308 41.558,41.558c10.455,17.251 15.683,36.069 15.683,56.456l-0,60.377c-0,20.387 -5.228,39.205 -15.683,56.456c-10.454,17.25 -24.307,31.103 -41.558,41.558c-17.25,10.455 -36.33,15.682 -57.24,15.682l-233.665,0Z" style="fill:#8e83f3;fill-rule:nonzero;"/></g></g></svg>